<svg width="17" height="16" viewBox="0 0 17 16" fill="none" xmlns="http://www.w3.org/2000/svg">
<path d="M0.52283 14.359C0.152743 14.729 0.152743 15.3291 0.52283 15.6992C0.892917 16.0692 1.49295 16.0692 1.86303 15.6992L0.52283 14.359ZM16.0397 1.12994C16.0397 0.606553 15.6154 0.182268 15.092 0.182269L6.56305 0.182269C6.03966 0.182268 5.61538 0.606553 5.61538 1.12994C5.61538 1.65332 6.03966 2.0776 6.56305 2.0776L14.1444 2.0776L14.1444 9.65894C14.1444 10.1823 14.5687 10.6066 15.092 10.6066C15.6154 10.6066 16.0397 10.1823 16.0397 9.65894L16.0397 1.12994ZM1.86303 15.6992L15.7622 1.80004L14.4219 0.459834L0.52283 14.359L1.86303 15.6992Z" fill="#09052E"/>
</svg>
